User Type,Username,Date,Text
[V],Zen_Bud,2012-09-12T15:01Z,"Men.In.Black.1997.1080p:
https://thepiratebay.se/torrent/7338315/Men.In.Black.1997.1080p.Bluray.x264.anoXmous

Men.in.Black.II.2002.1080p:
https://thepiratebay.se/torrent/7338316/Men.in.Black.II.2002.1080p.Bluray.x264.anoXmous"
,PIRATE300,2012-09-12T21:49Z,can u upload some screens? snapshots? :)
[V],Zen_Bud,2012-09-13T02:20Z,"@PIRATE300 Why?

Screen dump don't say a shit about the quality you know."
,vNa5h,2012-09-13T08:54Z,so post the media info then :)
[V],Zen_Bud,2012-09-13T15:41Z,"@ vNa5h So you are not satisfied with the info already posted?! Ok;)

General
Complete name                            : Men.in.Black.3.2012.1080p.BluRay.x264.anoXmous_.mp4
Format                                   : MPEG-4
Format profile                           : Base Media
Codec ID                                 : isom
File size                                : 843 MiB
Duration                                 : 1h 45mn
Overall bit rate mode                    : Variable
Overall bit rate                         : 1 113 Kbps
Encoded date                             : UTC 2012-09-11 23:18:05
Tagged date                              : UTC 2012-09-11 23:18:05

Video
ID                                       : 1
Format                                   : AVC
Format/Info                              : Advanced Video Codec
Format profile                           : High@L4.0
Format settings, CABAC                   : Yes
Format settings, ReFrames                : 4 frames
Codec ID                                 : avc1
Codec ID/Info                            : Advanced Video Coding
Duration                                 : 1h 45mn
Bit rate                                 : 1 025 Kbps
Maximum bit rate                         : 6 691 Kbps
Width                                    : 1 920 pixels
Height                                   : 1 040 pixels
Display aspect ratio                     : 1.85:1
Frame rate mode                          : Constant
Frame rate                               : 23.976 fps
Color space                              : YUV
Chroma subsampling                       : 4:2:0
Bit depth                                : 8 bits
Scan type                                : Progressive
Bits/(Pixel*Frame)                       : 0.021
Stream size                              : 775 MiB (92%)
Writing library                          : x264 core 125 r2208 d9d2288
Encoding settings                        : cabac=1 / ref=4 / deblock=1:0:0 / analyse=0x3:0x133 / me=hex / subme=7 / psy=1 / psy_rd=1.00:0.00 / mixed_ref=1 / me_range=16 / chroma_me=1 / trellis=1 / 8x8dct=1 / cqm=0 / deadzone=21,11 / fast_pskip=1 / chroma_qp_offset=-2 / threads=3 / lookahead_threads=1 / sliced_threads=0 / nr=0 / decimate=1 / interlaced=0 / bluray_compat=0 / constrained_intra=0 / bframes=4 / b_pyramid=2 / b_adapt=1 / b_bias=0 / direct=1 / weightb=1 / open_gop=0 / weightp=2 / keyint=240 / keyint_min=23 / scenecut=40 / intra_refresh=0 / rc_lookahead=45 / rc=2pass / mbtree=1 / bitrate=1025 / ratetol=1.0 / qcomp=0.60 / qpmin=0 / qpmax=69 / qpstep=4 / cplxblur=20.0 / qblur=0.5 / ip_ratio=1.40 / aq=1:1.00


Audio
ID                                       : 2
Format                                   : AAC
Format/Info                              : Advanced Audio Codec
Format profile                           : LC
Codec ID                                 : 40
Duration                                 : 1h 45mn
Bit rate mode                            : Variable
Bit rate                                 : 85.9 Kbps
Maximum bit rate                         : 128 Kbps
Channel(s)                               : 2 channels
Channel positions                        : Front: L R
Sampling rate                            : 48.0 KHz
Compression mode                         : Lossy
Stream size                              : 65.1 MiB (8%)
Language                                 : English

"
,redonix89,2012-10-01T14:14Z,thanks for the upload
